<svg width="200" height="200" viewBox="0 0 200 200" fill="none" xmlns="http://www.w3.org/2000/svg">
<g clip-path="url(#clip0_2_747)">
<path d="M192.351 114.957C188.211 117.809 183.758 118.512 178.758 118.278C178.719 138.867 178.914 159.026 178.641 179.537C178.446 190.477 169.11 199.658 158.173 199.853C147.236 200.049 136.26 199.931 125.284 199.892C121.769 199.892 119.425 197.353 119.425 193.602C119.386 184.343 119.425 175.084 119.386 165.824C119.386 159.73 119.386 153.596 119.386 147.501C119.347 141.211 115.402 137.187 109.035 137.109C103.059 137.031 97.0826 137.031 91.1064 137.109C84.8957 137.187 80.9116 141.25 80.9116 147.462C80.8725 162.582 80.8725 177.662 80.8725 192.782C80.8725 197.822 78.7632 199.931 73.6854 199.931C63.764 199.931 53.8426 199.931 43.9212 199.931C30.8359 199.892 21.5395 190.75 21.4614 177.623C21.3833 157.854 21.4224 138.046 21.4224 118.278C3.29826 119.997 -7.24809 99.6027 5.72001 86.4365C32.5155 59.6354 59.3111 32.8342 86.1457 6.07207C87.8253 4.31398 89.7783 2.86843 91.9266 1.69637C98.1763 -1.42913 107.902 -0.452415 113.84 5.64231C128.878 21.0745 144.229 36.1941 159.462 51.4309C171.141 63.1516 182.742 74.9503 194.617 86.5147C202.429 94.1331 201.687 108.745 192.351 114.957Z" fill="url(#paint0_linear_2_747)"/>
</g>
<defs>
<linearGradient id="paint0_linear_2_747" x1="27" y1="-39" x2="171.5" y2="194.5" gradientUnits="userSpaceOnUse">
<stop stop-color="#1A73E8"/>
<stop offset="0.269231" stop-color="#1A73E8"/>
<stop offset="0.658654" stop-color="#E98500"/>
<stop offset="1" stop-color="#FFC107"/>
</linearGradient>
<clipPath id="clip0_2_747">
<rect width="200" height="200" fill="white"/>
</clipPath>
</defs>
</svg>
