<svg width="200" height="200" viewBox="0 0 200 200" fill="none" xmlns="http://www.w3.org/2000/svg">
<path d="M100 93.75C124.162 93.75 143.75 74.1625 143.75 50C143.75 25.8375 124.162 6.25 100 6.25C75.8375 6.25 56.25 25.8375 56.25 50C56.25 74.1625 75.8375 93.75 100 93.75Z" fill="url(#paint0_linear_2_731)"/>
<path d="M131.062 106.25H68.9375C55.632 106.267 42.8762 111.559 33.4678 120.968C24.0594 130.376 18.7665 143.132 18.75 156.438V187.5C18.75 189.158 19.4085 190.747 20.5806 191.919C21.7527 193.092 23.3424 193.75 25 193.75H175C176.658 193.75 178.247 193.092 179.419 191.919C180.592 190.747 181.25 189.158 181.25 187.5V156.438C181.233 143.132 175.941 130.376 166.532 120.968C157.124 111.559 144.368 106.267 131.062 106.25Z" fill="url(#paint1_linear_2_731)"/>
<defs>
<linearGradient id="paint0_linear_2_731" x1="-27.6125" y1="202.05" x2="109.5" y2="50" gradientUnits="userSpaceOnUse">
<stop stop-color="#00A1E2"/>
<stop offset="0.283654" stop-color="#1A73E8"/>
<stop offset="1" stop-color="#FCBE00"/>
</linearGradient>
<linearGradient id="paint1_linear_2_731" x1="28.5188" y1="249.156" x2="149.831" y2="104.619" gradientUnits="userSpaceOnUse">
<stop stop-color="#1A73E8"/>
<stop offset="0.278846" stop-color="#1A73E8"/>
<stop offset="0.673077" stop-color="#E98500"/>
<stop offset="1" stop-color="#FCBE00"/>
</linearGradient>
</defs>
</svg>
