<svg width="12" height="19" viewBox="0 0 12 19" fill="none" xmlns="http://www.w3.org/2000/svg">
<path d="M0.000220492 9.48708C0.00726358 9.26875 0.0495221 9.06802 0.126996 8.8849C0.211513 8.70178 0.338289 8.5257 0.507323 8.35667L8.64209 0.4015C8.90973 0.133863 9.23723 4.41149e-05 9.6246 4.41149e-05C9.89224 4.41149e-05 10.1317 0.0634319 10.343 0.190207C10.5613 0.316983 10.7339 0.489539 10.8607 0.707874C10.9945 0.919167 11.0614 1.15511 11.0614 1.4157C11.0614 1.81012 10.9135 2.15523 10.6177 2.45104L3.3809 9.48708L10.6177 16.5231C10.9135 16.826 11.0614 17.1711 11.0614 17.5585C11.0614 17.8261 10.9945 18.0656 10.8607 18.2769C10.7339 18.4881 10.5613 18.6572 10.343 18.784C10.1317 18.9107 9.89224 18.9741 9.6246 18.9741C9.23723 18.9741 8.90973 18.8403 8.64209 18.5727L0.507323 10.6175C0.331246 10.4485 0.200948 10.2724 0.116431 10.0893C0.0389575 9.8991 0.000220492 9.69838 0.000220492 9.48708Z" fill="white" style="mix-blend-mode:plus-darker"/>
</svg>
