<svg width="15" height="21" viewBox="0 0 15 21" fill="none" xmlns="http://www.w3.org/2000/svg">
<path d="M13.98 7.76062C13.3989 6.21893 12.552 4.79106 11.4778 3.54187C9.61875 1.38984 6.75 0 4.5 0C5.39062 3.28125 3.82688 5.49 2.40047 7.67672C1.21875 9.48563 0 11.3564 0 13.5C0 17.6353 3.36469 21 7.5 21C11.6353 21 15 17.6353 15 13.5C15 11.4703 14.6569 9.53953 13.98 7.76062ZM9.01547 18.1261C8.53125 18.6417 7.92422 18.75 7.5 18.75C7.07578 18.75 6.46875 18.6417 5.98453 18.1261C5.50031 17.6105 5.25 16.7925 5.25 15.75C5.25 14.5716 5.66344 13.6744 6.06281 12.8072C6.36656 12.1477 6.75 11.5313 6.77109 10.7217C7.30078 10.9973 7.88062 11.5144 8.39016 12.188C9.24187 13.313 9.74953 14.6452 9.74953 15.7505C9.75 16.7925 9.49594 17.6142 9.01547 18.1261Z" fill="white"/>
</svg>
