<svg width="351" height="269" viewBox="0 0 351 269" fill="none" xmlns="http://www.w3.org/2000/svg">
<path d="M185.112 150.331C170.109 208.689 179.909 268.426 179.909 268.426C268.381 223.437 361.799 131.772 349.309 94.6561C339.764 66.2932 324.207 97.5327 302.471 108.154C306.955 104.159 325.127 73.1298 321.206 64.2893C308.544 35.7351 280.613 74.4111 261.877 108.154C268.123 91.283 318.084 6.92883 280.613 0.18139C252.891 -4.81294 199.425 94.6547 185.112 150.331Z" fill="#F8F9FA"/>
<path d="M165.325 150.331C180.329 208.689 170.529 268.426 170.529 268.426C82.0563 223.437 -11.3613 131.772 1.12858 94.6561C10.674 66.2932 26.2305 97.5327 47.9666 108.154C43.4823 104.159 25.3103 73.1299 29.2312 64.2893C41.8933 35.7351 69.8248 74.4111 88.5602 108.154C82.3147 91.283 32.3539 6.92884 69.8247 0.181403C97.5468 -4.81292 151.012 94.6548 165.325 150.331Z" fill="#F8F9FA"/>
</svg>
