<svg width="19" height="20" viewBox="0 0 19 20" fill="none" xmlns="http://www.w3.org/2000/svg">
<path d="M16.4784 10.54C16.5184 10.24 16.5384 9.93 16.5384 9.6C16.5384 9.28 16.5184 8.96 16.4684 8.66L18.4984 7.08C18.5858 7.0079 18.6456 6.9077 18.6675 6.79647C18.6894 6.68524 18.672 6.56987 18.6184 6.47L16.6984 3.15C16.6418 3.04957 16.5516 2.97238 16.4436 2.93211C16.3356 2.89184 16.2169 2.8911 16.1084 2.93L13.7184 3.89C13.2184 3.51 12.6884 3.19 12.0984 2.95L11.7384 0.410003C11.7207 0.295533 11.6625 0.19121 11.5744 0.115979C11.4863 0.0407481 11.3742 -0.000401505 11.2584 2.9534e-06H7.41837C7.17837 2.9534e-06 6.98837 0.170003 6.94837 0.410003L6.58837 2.95C5.99837 3.19 5.45837 3.52 4.96837 3.89L2.57837 2.93C2.35837 2.85 2.10837 2.93 1.98837 3.15L0.0783736 6.47C-0.0416264 6.68 -0.00162655 6.94 0.198373 7.08L2.22837 8.66C2.17837 8.96 2.13837 9.29 2.13837 9.6C2.13837 9.91 2.15837 10.24 2.20837 10.54L0.178373 12.12C0.0908975 12.1921 0.0311271 12.2923 0.00924601 12.4035C-0.0126351 12.5148 0.0047268 12.6301 0.0583736 12.73L1.97837 16.05C2.09837 16.27 2.34837 16.34 2.56837 16.27L4.95837 15.31C5.45837 15.69 5.98837 16.01 6.57837 16.25L6.93837 18.79C6.98837 19.03 7.17837 19.2 7.41837 19.2H11.2584C11.4984 19.2 11.6984 19.03 11.7284 18.79L12.0884 16.25C12.6784 16.01 13.2184 15.69 13.7084 15.31L16.0984 16.27C16.3184 16.35 16.5684 16.27 16.6884 16.05L18.6084 12.73C18.7284 12.51 18.6784 12.26 18.4884 12.12L16.4784 10.54ZM9.33837 13.2C7.35837 13.2 5.73837 11.58 5.73837 9.6C5.73837 7.62 7.35837 6 9.33837 6C11.3184 6 12.9384 7.62 12.9384 9.6C12.9384 11.58 11.3184 13.2 9.33837 13.2Z" fill="white"/>
</svg>
