<svg width="20" height="20" viewBox="0 0 20 20" fill="none" xmlns="http://www.w3.org/2000/svg">
<g clip-path="url(#clip0_531_4666)">
<path d="M3.33093 11.6583C3.17335 11.6588 3.01885 11.6146 2.88538 11.5309C2.75191 11.4471 2.64496 11.3272 2.57694 11.185C2.50891 11.0429 2.48262 10.8843 2.50112 10.7278C2.51961 10.5713 2.58212 10.4233 2.6814 10.3009L10.9255 1.80706C10.9873 1.73568 11.0716 1.68745 11.1644 1.67027C11.2573 1.6531 11.3533 1.66801 11.4365 1.71255C11.5198 1.7571 11.5855 1.82863 11.6227 1.91541C11.66 2.00219 11.6667 2.09906 11.6416 2.19012L10.0428 7.20317C9.99561 7.32935 9.97978 7.46508 9.99662 7.59872C10.0135 7.73237 10.0625 7.85993 10.1394 7.97047C10.2164 8.08101 10.319 8.17124 10.4385 8.2334C10.558 8.29555 10.6908 8.3278 10.8255 8.32736H16.6547C16.8122 8.32682 16.9667 8.37101 17.1002 8.45479C17.2337 8.53856 17.3406 8.65849 17.4087 8.80064C17.4767 8.94278 17.503 9.10131 17.4845 9.25781C17.466 9.4143 17.4035 9.56234 17.3042 9.68471L9.06013 18.1786C8.99829 18.25 8.91402 18.2982 8.82116 18.3154C8.72829 18.3326 8.63234 18.3176 8.54906 18.2731C8.46578 18.2286 8.40012 18.157 8.36286 18.0702C8.32559 17.9835 8.31894 17.8866 8.34399 17.7955L9.94283 12.7825C9.98998 12.6563 10.0058 12.5206 9.98897 12.3869C9.97213 12.2533 9.92313 12.1257 9.84616 12.0152C9.76919 11.9046 9.66655 11.8144 9.54705 11.7523C9.42756 11.6901 9.29476 11.6579 9.16006 11.6583H3.33093Z" stroke="#F7B500" stroke-width="1.66547" stroke-linecap="round" stroke-linejoin="round"/>
</g>
<defs>
<clipPath id="clip0_531_4666">
<rect width="19.9856" height="19.9856" fill="white"/>
</clipPath>
</defs>
</svg>
