<svg width="17" height="23" viewBox="0 0 17 23" fill="none" xmlns="http://www.w3.org/2000/svg">
<path d="M5.38211 22.5015C5.25645 22.5016 5.13229 22.4742 5.01835 22.4212C4.90442 22.3682 4.80347 22.2909 4.72261 22.1947C4.64175 22.0985 4.58293 21.9858 4.55029 21.8645C4.51765 21.7431 4.51197 21.6161 4.53367 21.4923V21.4872L5.85133 14.2515H0.74992C0.60832 14.2515 0.469617 14.2114 0.349855 14.1359C0.230092 14.0603 0.134163 13.9524 0.0731628 13.8246C0.0121625 13.6968 -0.0114166 13.5544 0.00515303 13.4138C0.0217227 13.2731 0.0777639 13.1401 0.166795 13.03L10.4404 0.329657C10.5573 0.181215 10.7197 0.0751596 10.9026 0.027709C11.0855 -0.0197416 11.2789 -0.00597574 11.4533 0.0669015C11.6276 0.139779 11.7733 0.267756 11.8681 0.431263C11.9628 0.59477 12.0014 0.784807 11.9779 0.972313C11.9779 0.986376 11.9741 0.999969 11.9718 1.01403L10.6495 8.25153H15.7499C15.8915 8.25155 16.0302 8.29165 16.15 8.3672C16.2697 8.44274 16.3657 8.55065 16.4267 8.67844C16.4877 8.80622 16.5113 8.94867 16.4947 9.0893C16.4781 9.22992 16.4221 9.36299 16.333 9.47309L6.05805 22.1734C5.97731 22.2754 5.8746 22.3579 5.75757 22.4147C5.64054 22.4715 5.5122 22.5012 5.38211 22.5015Z" fill="white"/>
</svg>
