<svg width="20" height="20" viewBox="0 0 20 20" fill="none" xmlns="http://www.w3.org/2000/svg">
<g clip-path="url(#clip0_531_4674)">
<path d="M9.9928 5.8291V17.4874" stroke="#2F6FD6" stroke-width="1.66547" stroke-linecap="round" stroke-linejoin="round"/>
<path d="M2.49814 14.9893C2.27728 14.9893 2.06547 14.9015 1.90931 14.7454C1.75314 14.5892 1.66541 14.3774 1.66541 14.1565V3.33102C1.66541 3.11017 1.75314 2.89836 1.90931 2.74219C2.06547 2.58603 2.27728 2.49829 2.49814 2.49829H6.6618C7.54522 2.49829 8.39245 2.84923 9.01713 3.4739C9.6418 4.09857 9.99273 4.9458 9.99273 5.82922C9.99273 4.9458 10.3437 4.09857 10.9683 3.4739C11.593 2.84923 12.4402 2.49829 13.3237 2.49829H17.4873C17.7082 2.49829 17.92 2.58603 18.0762 2.74219C18.2323 2.89836 18.3201 3.11017 18.3201 3.33102V14.1565C18.3201 14.3774 18.2323 14.5892 18.0762 14.7454C17.92 14.9015 17.7082 14.9893 17.4873 14.9893H12.4909C11.8284 14.9893 11.1929 15.2525 10.7244 15.721C10.2559 16.1895 9.99273 16.8249 9.99273 17.4875C9.99273 16.8249 9.72953 16.1895 9.26103 15.721C8.79252 15.2525 8.1571 14.9893 7.49453 14.9893H2.49814Z" stroke="#2F6FD6" stroke-width="1.66547" stroke-linecap="round" stroke-linejoin="round"/>
</g>
<defs>
<clipPath id="clip0_531_4674">
<rect width="19.9856" height="19.9856" fill="white"/>
</clipPath>
</defs>
</svg>
