<svg width="900" height="813" viewBox="0 0 900 813" fill="none" xmlns="http://www.w3.org/2000/svg">
<path d="M626.028 617.458C638.609 600.755 611.683 589.948 597.222 586.316C615.328 588.294 657.578 590.975 667.157 571.216C674.459 556.158 658.751 548.224 643.372 546.534C654.612 542.112 688.28 533.951 692.301 518.484C698.232 495.666 669.357 503.668 656.95 507.362C603.459 523.29 512.267 540.657 484.912 472.499C484.912 472.499 449.075 472.652 431.935 515.077C418.469 548.414 442.874 605.788 489.384 633.145C526.758 655.129 617.277 662.908 558.753 608.038C570.444 616.452 613.648 633.897 626.028 617.458Z" fill="#884744"/>
<path d="M345.693 726.288C344.444 739.138 341.743 751.811 340.496 764.662C340.029 769.475 347.533 769.431 347.996 764.662C349.243 751.812 351.944 739.139 353.193 726.288C353.661 721.474 346.156 721.52 345.693 726.288Z" fill="#08071F"/>
<path d="M348.266 770.816C362.775 757.511 381.994 750.069 401.667 750.014C406.503 750 406.504 742.5 401.667 742.514C379.99 742.575 358.93 750.87 342.963 765.513C339.391 768.788 344.709 774.078 348.266 770.816Z" fill="#08071F"/>
<path d="M345.211 772.329C363.234 765.411 382.207 762.467 400.507 770.134C404.966 772.002 406.893 764.741 402.501 762.902C383.121 754.783 362.33 757.761 343.216 765.098C338.75 766.811 340.688 774.065 345.211 772.329Z" fill="#08071F"/>
<path d="M393.489 779.266C383.343 771.656 370.654 767.812 358.28 765.781C348.284 764.139 336.585 763.071 326.858 766.641C322.357 768.293 324.301 775.543 328.852 773.873C337.775 770.598 348.454 771.727 357.616 773.23C368.959 775.092 380.43 778.786 389.704 785.741C393.577 788.647 397.309 782.13 393.489 779.266Z" fill="#08071F"/>
<path d="M487.583 562.664C487.583 634.126 430.463 701.711 364.977 738.288C336.92 753.959 338.708 740.068 334.955 740.322C322.172 718.569 303.602 667.051 303.094 659.547L487.583 562.664Z" fill="#C27150"/>
<path d="M170.987 736.997C171.266 749.904 170.082 762.809 170.361 775.717C170.465 780.545 177.965 780.556 177.861 775.717C177.582 762.809 178.766 749.904 178.487 736.997C178.383 732.168 170.883 732.159 170.987 736.997Z" fill="#08071F"/>
<path d="M178.537 781.685C191.318 766.812 209.425 756.787 228.957 754.412C233.695 753.836 233.751 746.329 228.957 746.912C207.457 749.526 187.392 759.906 173.233 776.382C170.099 780.029 175.38 785.359 178.537 781.685Z" fill="#08071F"/>
<path d="M176.452 782.982C193.167 774.173 211.524 769.075 230.193 774.41C234.854 775.741 236.829 768.505 232.187 767.178C211.569 761.286 191.148 766.767 172.667 776.506C168.387 778.761 172.177 785.235 176.452 782.982Z" fill="#08071F"/>
<path d="M225.133 784.598C214.008 778.159 200.991 775.801 188.292 775.156C177.916 774.629 166.049 775.177 156.607 779.972C152.293 782.162 156.09 788.633 160.392 786.449C168.652 782.255 179.279 782.315 188.292 782.656C199.607 783.084 211.461 785.352 221.348 791.075C225.542 793.502 229.316 787.02 225.133 784.598Z" fill="#08071F"/>
<path d="M254.868 594.381C259.249 624.386 232.135 709.907 194.633 743.67C170.751 765.173 169.253 750.678 165.628 751.679C133.33 731.799 73.1506 645.291 84.4346 562.547C85.4496 555.094 254.868 594.381 254.868 594.381Z" fill="#C27150"/>
<path d="M499.74 481.615C520.002 635.61 380.523 746.56 260.645 724.763C171.49 708.553 29.652 676.133 70.178 522.139C107.449 380.51 297.075 313.838 353.85 319.516C434.901 327.622 490.701 412.92 499.74 481.615Z" fill="#C27150"/>
<path d="M84.1578 532.121C72.1898 509.098 65.3748 466.406 47.1748 461.747C34.0328 458.385 35.6538 475.809 39.9958 488.801C35.4538 478.385 20.0828 457.884 11.2898 467.345C1.63784 477.732 17.0018 499.648 27.4148 510.838C10.1108 494.743 -8.68118 493.66 4.34382 516.533C14.2218 533.883 61.5478 567.14 82.9938 559.463C82.9938 559.463 87.2118 537.999 84.1578 532.121Z" fill="#C27150"/>
<path d="M447.086 612.638C430.794 673.135 370.773 726.739 293.062 712.606C241.123 703.16 218.606 655.197 226.467 602.335C236.765 533.103 302.284 458.505 376.849 469.123C434.98 477.402 461.216 560.158 447.086 612.638Z" fill="#F4B480"/>
<path d="M293.725 0.150334C265.874 3.33533 292.327 47.3653 307.306 64.2774C294.043 52.7074 263.759 32.9613 253.26 42.8853C234.084 61.0103 283.05 86.5724 295.393 87.9894C283.59 87.5974 252.485 83.3473 254.528 98.5123C257.601 121.311 307.855 113.87 325.345 107.508L345.68 84.9634C343.279 63.1734 326.358 -3.58067 293.725 0.150334Z" fill="#F4B480"/>
<path d="M702.62 142.818C722.443 162.636 674.344 180.654 652.094 184.576C669.676 183.769 705.67 187.148 707.719 201.451C711.454 227.572 657.215 217.124 646.67 210.555C656.155 217.59 683.152 233.614 672.12 244.215C655.531 260.155 620.81 223.067 611.078 207.205L609.18 176.903C624.615 161.335 679.391 119.595 702.62 142.818Z" fill="#F4B480"/>
<path d="M196.763 219.597C156.94 333.732 238.625 422.394 362.472 465.606C486.321 508.817 605.432 490.216 645.254 376.083C685.078 261.947 616.961 134.394 493.114 91.1823C369.266 47.9703 236.587 105.462 196.763 219.597Z" fill="#C27150"/>
<path d="M474.405 305.952C458.646 351.122 482.488 400.516 527.657 416.276C572.825 432.037 622.219 408.195 637.98 363.025C653.741 317.855 629.9 268.462 584.73 252.702C539.559 236.941 490.166 260.782 474.405 305.952Z" fill="#F4B480"/>
<path d="M211.955 214.379C195.99 260.136 220.143 310.175 265.898 326.139C311.659 342.106 361.695 317.952 377.659 272.195C393.624 226.437 369.474 176.4 323.715 160.435C277.96 144.468 227.921 168.622 211.955 214.379Z" fill="#F4B480"/>
<path d="M489.17 324.33C477.856 356.758 494.969 392.217 527.395 403.531C559.822 414.844 595.281 397.728 606.595 365.301C617.908 332.879 600.794 297.421 568.368 286.105C535.94 274.792 500.482 291.91 489.17 324.33Z" fill="white"/>
<path d="M230.177 233.966C218.864 266.391 235.977 301.853 268.404 313.166C300.832 324.48 336.288 307.363 347.602 274.937C358.915 242.513 341.803 207.054 309.375 195.74C276.95 184.426 241.491 201.542 230.177 233.966Z" fill="white"/>
<path d="M397.782 373.727C402.452 375.189 453.488 327.482 453.671 306.878C453.869 286.628 400.398 270.233 390.758 289.435C380.404 310.085 392.691 372.117 397.782 373.727Z" fill="#FFA300"/>
<path d="M602.589 324.76C603.56 325.098 604.507 325.471 605.443 325.861C609.144 338.036 609.16 351.451 604.647 364.383C595.99 389.197 573.192 405.047 548.434 406.05C536.587 392.818 532.096 373.717 538.364 355.761C547.536 329.464 576.292 315.584 602.589 324.76Z" fill="#08071F"/>
<path d="M345.612 235.833C346.577 236.185 347.519 236.574 348.45 236.978C351.973 249.205 351.792 262.619 347.091 275.484C338.074 300.169 315.048 315.684 290.278 316.327C278.625 302.924 274.413 283.762 280.941 265.897C290.497 239.737 319.452 226.277 345.612 235.833Z" fill="#08071F"/>
<path d="M545.014 332.235C542.861 338.404 546.116 345.153 552.285 347.305C558.456 349.458 565.206 346.201 567.358 340.031C569.512 333.86 566.251 327.114 560.083 324.96C553.913 322.807 547.166 326.063 545.014 332.235Z" fill="white"/>
<path d="M281.192 243.487C279.038 249.659 282.295 256.407 288.464 258.56C294.635 260.712 301.384 257.456 303.538 251.286C305.689 245.115 302.432 238.367 296.263 236.215C290.093 234.063 283.344 237.318 281.192 243.487Z" fill="white"/>
<path d="M613.257 174.072C567.754 163.127 478.609 192.444 437.624 253.36C444.198 177.972 376.484 96.3906 342.791 84.8736C421.988 63.3366 477.895 74.8616 553.645 118.747C570.86 128.719 613.257 174.072 613.257 174.072Z" fill="#F4B480"/>
<path d="M460.242 190.614C464.377 187.182 482.738 163.989 469.615 162.387C460.733 161.302 460.187 184.666 459.1 189.457L460.242 190.614Z" fill="#08071F"/>
<path d="M500.818 165.27C505.798 163.254 530.337 146.733 518.319 141.221C510.188 137.491 502.571 159.584 500.082 163.821L500.818 165.27Z" fill="#08071F"/>
<path d="M479.572 130.036C483.734 126.635 502.263 103.575 489.153 101.876C480.281 100.729 479.564 124.085 478.441 128.87L479.572 130.036Z" fill="#08071F"/>
<path d="M443.336 142.541C440.69 137.867 431.741 109.672 444.577 112.824C453.267 114.957 445.497 136.996 444.818 141.865L443.336 142.541Z" fill="#08071F"/>
<path d="M581.628 377.147C579.977 380.02 580.963 383.686 583.834 385.337C586.705 386.988 590.373 386.001 592.026 383.127C593.677 380.256 592.687 376.588 589.818 374.935C586.947 373.285 583.279 374.275 581.628 377.147Z" fill="white"/>
<path d="M324.42 288.806C323.59 291.183 324.846 293.781 327.221 294.611C329.596 295.44 332.197 294.186 333.024 291.808C333.854 289.433 332.599 286.833 330.223 286.004C327.848 285.174 325.25 286.43 324.42 288.806Z" fill="white"/>
<path d="M429.825 284.661C443.686 289.091 455.964 297.923 455.87 307.645C455.686 328.249 404.652 375.958 399.983 374.495C399.641 374.387 399.267 374.001 398.871 373.38L429.825 284.661Z" fill="#FFC200"/>
<path d="M612.374 261.516C614.273 263.514 616.174 265.51 618.074 267.507C621.039 270.624 625.372 272.91 628.64 275.793C635.107 281.498 640.691 288.096 645.32 295.363C654.068 309.092 658.727 325.096 659.593 341.296C661.318 373.533 647.889 406.146 623.624 427.469C611.243 438.348 595.924 445.293 579.741 448.11C561.51 451.284 542.521 447.95 525.082 442.419C497.794 433.765 473.647 415.247 463.603 387.78C445.231 337.543 475.811 279.278 523.367 258.694C552.204 246.213 585.204 250.011 613.385 262.299C619.234 264.849 624.33 256.235 618.432 253.664C588.623 240.668 555.225 236.289 524.174 247.692C498.138 257.255 476.667 276.745 463.261 300.878C450.343 324.132 445.215 351.691 450.441 377.874C455.994 405.696 474.618 428.553 499.161 442.161C529.82 459.161 569.888 465.447 602.858 451.841C633.808 439.069 655.85 411.124 665.09 379.384C671.709 356.646 671.361 331.654 663.243 309.355C659.016 297.745 652.658 287.166 644.642 277.787C637.083 268.944 627.368 262.776 619.444 254.447C614.992 249.765 607.933 256.848 612.374 261.516Z" fill="#08071F"/>
<path d="M338.389 162.575C340.289 164.572 342.189 166.568 344.089 168.565C347.055 171.682 351.387 173.968 354.655 176.851C361.122 182.556 366.706 189.154 371.336 196.421C380.084 210.15 384.743 226.154 385.609 242.355C387.334 274.591 373.903 307.204 349.639 328.527C337.258 339.406 321.939 346.35 305.756 349.168C287.525 352.342 268.537 349.008 251.098 343.477C223.81 334.822 199.663 316.305 189.62 288.838C171.249 238.601 201.827 180.336 249.384 159.752C278.221 147.272 311.221 151.07 339.402 163.357C345.251 165.907 350.348 157.294 344.449 154.722C314.641 141.725 281.243 137.346 250.192 148.75C224.156 158.312 202.685 177.803 189.279 201.935C176.361 225.189 171.233 252.747 176.459 278.93C182.012 306.753 200.636 329.609 225.179 343.217C255.838 360.217 295.907 366.502 328.877 352.897C359.827 340.126 381.869 312.182 391.109 280.441C397.729 257.703 397.381 232.71 389.263 210.411C385.036 198.801 378.677 188.222 370.66 178.843C363.102 170 353.387 163.832 345.462 155.503C341.007 150.824 333.946 157.906 338.389 162.575Z" fill="#08071F"/>
<path d="M468.996 308.634C464.339 292.787 453.941 279.06 438.956 271.731C423.195 264.022 405.232 265.692 390.101 274.002C384.448 277.106 389.493 285.743 395.148 282.637C407.216 276.009 421.203 274.57 433.909 280.366C446.69 286.196 455.458 298.04 459.353 311.293C461.168 317.466 470.819 314.835 468.996 308.634Z" fill="#08071F"/>
<path d="M236.429 561.267C256.441 555.198 241.07 530.59 231.532 519.128C244.986 531.403 277.526 558.486 296.916 548.179C311.692 540.324 303.686 524.653 292.264 514.219C303.949 517.276 335.952 530.542 348.319 520.422C366.567 505.491 338.529 494.926 326.331 490.592C273.739 471.908 189.852 432.153 207.956 360.977C207.956 360.977 183.657 344.789 144.796 368.944C114.26 387.923 95.3993 443.829 116.826 493.351C134.045 533.147 202.559 592.812 187.656 513.985C192.135 527.673 216.737 567.242 236.429 561.267Z" fill="#884744"/>
<path d="M398.143 152.806C414.621 167.829 416.59 168.26 410.657 178.643C396.139 204.045 343.499 135.772 354.106 127.736C362.683 121.237 387.758 143.336 398.143 152.806Z" fill="#08071F"/>
<path d="M776.004 808.206C768.986 766.015 763.045 723.512 761.383 680.73C759.908 642.784 760.807 601.804 775.818 566.298C777.774 561.671 769.015 561.688 767.499 565.276C752.21 601.443 751.177 642.722 752.573 681.379C754.138 724.713 760.206 767.809 767.311 810.537C767.987 814.602 776.7 812.39 776.004 808.206Z" fill="#888C3E"/>
<path d="M761.422 582.76C746.236 500.327 791.28 472.084 822.905 459.664C822.905 459.664 839.012 508.529 819.592 537.157C792.856 576.573 761.422 582.76 761.422 582.76Z" fill="#B0BA56"/>
<path d="M770.383 724.853C774.153 651.83 818.085 636.964 847.434 632.816C847.434 632.816 851.228 677.539 828.963 697.908C798.308 725.954 770.383 724.853 770.383 724.853Z" fill="#B0BA56"/>
<path d="M744.837 689.625C686.805 683.11 677.066 647.373 675.17 623.778C675.17 623.778 711.004 622.903 726.172 641.632C747.057 667.417 744.837 689.625 744.837 689.625Z" fill="#B0BA56"/>
<path d="M627.295 539.314L614.652 515.464L695.121 472.817L707.758 496.667L627.295 539.314Z" fill="#43405A"/>
<path d="M508.947 616.452C499.25 621.591 487.222 617.895 482.083 608.197L476.126 596.962C470.989 587.264 474.684 575.239 484.38 570.099L626.595 494.724C636.293 489.583 648.323 493.279 653.463 502.976L659.416 514.214C664.559 523.909 660.862 535.939 651.164 541.075L508.947 616.452Z" fill="#22B0D3"/>
<path d="M706.358 515.083C699.687 507.927 693.961 499.878 689.337 491.155C660.498 436.739 681.305 369.004 735.718 340.16C780.261 316.557 835.353 325.789 869.693 362.618C876.366 369.774 882.092 377.823 886.714 386.546C915.553 440.96 894.747 508.698 840.332 537.541C795.788 561.144 740.698 551.912 706.358 515.083ZM857.467 374.015C828.275 342.702 781.425 334.853 743.545 354.932C697.271 379.453 679.581 437.058 704.103 483.329C708.039 490.754 712.91 497.604 718.582 503.686C747.78 534.997 794.624 542.847 832.504 522.772C878.775 498.247 896.471 440.645 871.946 394.37C868.012 386.945 863.141 380.098 857.467 374.015Z" fill="#2E415F"/>
<path d="M787.984 343.889C772.842 343.889 757.582 347.494 743.547 354.933C697.273 379.454 679.583 437.059 704.105 483.33C708.041 490.755 712.912 497.605 718.584 503.687C730.246 516.193 744.725 524.957 760.322 529.693C768.307 486.966 799.333 468.921 822.905 459.664C822.905 459.664 828.706 477.261 829.148 497.522C873.918 457.863 853.853 403.962 853.853 403.962C853.853 403.962 883.295 441.702 863.455 479.252C856.626 492.169 842.074 501.847 828.85 508.076C828.337 514.28 827.173 520.492 825.059 526.316C827.575 525.251 830.058 524.071 832.506 522.774C878.777 498.249 896.473 440.646 871.948 394.372C868.014 386.946 863.142 380.099 857.469 374.016C839.091 354.304 813.713 343.889 787.984 343.889Z" fill="white"/>
<path d="M822.905 459.664C799.333 468.921 768.306 486.967 760.322 529.693C769.31 532.422 778.668 533.814 788.075 533.814C800.573 533.814 813.155 531.356 825.059 526.316C827.172 520.492 828.336 514.28 828.85 508.076C817.22 513.554 806.618 516.364 803.2 516.364C801.409 516.364 801.591 515.592 804.63 514.028C814.42 508.988 822.499 503.414 829.149 497.522C828.706 477.261 822.905 459.664 822.905 459.664Z" fill="#D8DDAB"/>
<path d="M760.32 529.693C744.723 524.957 730.244 516.193 718.582 503.687C712.911 497.605 708.04 490.755 704.103 483.33C679.581 437.059 697.271 379.454 743.545 354.933C757.579 347.494 772.839 343.889 787.982 343.889C813.711 343.889 839.089 354.303 857.466 374.016C863.14 380.099 868.011 386.946 871.945 394.372C896.469 440.646 878.774 498.249 832.503 522.774C830.055 524.071 827.571 525.251 825.056 526.316C813.152 531.357 800.57 533.814 788.072 533.814C778.667 533.814 769.308 532.422 760.32 529.693ZM787.94 339.684C772.283 339.685 756.393 343.404 741.596 351.247C693.213 376.891 674.778 436.899 700.421 485.284C718.221 518.868 752.574 538.019 788.109 538.019C803.766 538.019 819.659 534.297 834.455 526.453C882.842 500.812 901.274 440.806 875.628 392.422C857.829 358.837 823.475 339.682 787.94 339.684Z" fill="#97A0AF"/>
<path d="M853.852 403.961C853.852 403.961 873.917 457.861 829.147 497.521C829.223 500.985 829.142 504.529 828.848 508.075C842.072 501.846 856.624 492.168 863.453 479.251C883.295 441.701 853.852 403.961 853.852 403.961Z" fill="white"/>
<path d="M829.147 497.521C822.497 503.413 814.418 508.987 804.628 514.027C801.588 515.591 801.407 516.363 803.198 516.363C806.616 516.363 817.218 513.553 828.848 508.075C829.141 504.529 829.222 500.985 829.147 497.521Z" fill="#F3F5E6"/>
</svg>
