<svg width="175" height="138" viewBox="0 0 175 138" fill="none" xmlns="http://www.w3.org/2000/svg">
<path d="M37.5 125C48.9292 125.015 59.8988 129.501 68.0625 137.5H18.75C13.7772 137.5 9.00806 135.525 5.49175 132.008C1.97544 128.492 0 123.723 0 118.75V31.25C0.0108719 27.3816 1.21799 23.6112 3.45587 20.4558C5.69374 17.3004 8.85282 14.9145 12.5 13.625V100C12.5 106.63 15.1339 112.989 19.8223 117.678C24.5107 122.366 30.8696 125 37.5 125ZM162.5 13.625V100C162.5 106.63 159.866 112.989 155.178 117.678C150.489 122.366 144.13 125 137.5 125C126.071 125.015 115.101 129.501 106.938 137.5H156.25C161.223 137.5 165.992 135.525 169.508 132.008C173.025 128.492 175 123.723 175 118.75V31.25C174.989 27.3816 173.782 23.6112 171.544 20.4558C169.306 17.3004 166.147 14.9145 162.5 13.625ZM25 12.5V100C25 103.315 26.317 106.495 28.6612 108.839C31.0054 111.183 34.1848 112.5 37.5 112.5C45.8887 112.527 54.1662 114.42 61.7331 118.041C69.2999 121.663 75.9665 126.922 81.25 133.438V15.75C68.9386 5.57799 53.47 0.00929066 37.5 0C34.1848 0 31.0054 1.31696 28.6612 3.66116C26.317 6.00537 25 9.18479 25 12.5ZM150 100V12.5C150 9.18479 148.683 6.00537 146.339 3.66116C143.995 1.31696 140.815 0 137.5 0C121.53 0.00929066 106.061 5.57799 93.75 15.75V133.438C99.0335 126.922 105.7 121.663 113.267 118.041C120.834 114.42 129.111 112.527 137.5 112.5C140.815 112.5 143.995 111.183 146.339 108.839C148.683 106.495 150 103.315 150 100Z" fill="#6B7280"/>
</svg>
