<svg width="150" height="140" viewBox="0 0 150 140" fill="none" xmlns="http://www.w3.org/2000/svg">
<path d="M93.6188 120.738C94.5424 122.616 95.251 124.593 96.1746 126.471C96.6359 127.409 98.0336 126.588 97.5742 125.653C96.6506 123.775 95.9421 121.798 95.0185 119.92C94.5572 118.982 93.1593 119.804 93.6188 120.738Z" fill="#08071F"/>
<path d="M97.95 126.59C98.8138 123.518 100.818 120.84 103.53 119.155C104.194 118.742 103.584 117.69 102.916 118.105C99.9389 119.956 97.7268 122.891 96.7776 126.267C96.5651 127.023 97.7382 127.344 97.95 126.59Z" fill="#08071F"/>
<path d="M97.7398 126.93C99.5958 124.486 101.979 122.508 105.087 122.022C105.86 121.901 105.531 120.729 104.764 120.849C101.337 121.385 98.7273 123.634 96.6901 126.317C96.2156 126.941 97.2723 127.546 97.7398 126.93Z" fill="#08071F"/>
<path d="M104.924 123.876C102.869 123.694 100.793 124.242 98.9063 125.02C97.3953 125.643 95.6968 126.486 94.6627 127.801C94.1837 128.41 95.0378 129.277 95.5223 128.661C96.4807 127.442 98.0459 126.68 99.4472 126.102C101.165 125.394 103.057 124.926 104.924 125.092C105.705 125.161 105.698 123.945 104.924 123.876Z" fill="#08071F"/>
<path d="M98.7684 82.2168C104.862 92.0679 103.394 110.031 97.4854 120.658C94.9541 125.211 94.0161 123.143 93.5204 123.498C89.9032 121.59 82.9502 116.071 82.2402 115.08L98.7684 82.2168Z" fill="#C27150"/>
<path d="M51.6982 128.148C51.7434 130.241 51.5517 132.332 51.5968 134.425C51.6136 135.207 52.8295 135.209 52.8125 134.425C52.7674 132.332 52.9592 130.241 52.9139 128.148C52.8969 127.365 51.6812 127.364 51.6982 128.148Z" fill="#08071F"/>
<path d="M52.9234 135.391C54.9952 132.98 57.9302 131.355 61.0962 130.97C61.8643 130.877 61.8733 129.66 61.0962 129.754C57.6112 130.178 54.3588 131.861 52.0637 134.531C51.5557 135.122 52.4117 135.986 52.9234 135.391Z" fill="#08071F"/>
<path d="M52.5843 135.601C55.2937 134.173 58.2693 133.347 61.2954 134.212C62.0509 134.427 62.3711 133.254 61.6186 133.039C58.2764 132.085 54.9664 132.973 51.9706 134.552C51.277 134.917 51.8915 135.966 52.5843 135.601Z" fill="#08071F"/>
<path d="M60.4764 135.864C58.6731 134.82 56.5629 134.437 54.5045 134.333C52.8226 134.248 50.8992 134.336 49.3685 135.114C48.6693 135.469 49.2849 136.517 49.9821 136.163C51.321 135.483 53.0434 135.493 54.5045 135.549C56.3386 135.618 58.2601 135.985 59.8629 136.913C60.5427 137.307 61.1544 136.256 60.4764 135.864Z" fill="#08071F"/>
<path d="M65.2947 105.03C66.005 109.894 61.6098 123.757 55.5311 129.23C52.8249 131.666 51.8917 131.251 51.3747 130.836C51.1518 130.657 51.0062 130.479 50.8295 130.528C45.5945 127.305 35.8397 113.283 37.6686 99.8702C37.8333 98.6621 65.2947 105.03 65.2947 105.03Z" fill="#C27150"/>
<path d="M102.01 92.8693C102.01 108.871 93.2101 122.509 68.4754 122.642C51.0259 122.735 36.0234 112.229 36.0234 96.227C36.0234 76.8398 55.846 61.377 73.2958 61.377C90.7453 61.377 102.01 76.867 102.01 92.8693Z" fill="#C27150"/>
<path d="M40.7144 108.34C37.4826 105.648 33.7886 99.6928 30.7761 100.137C28.6006 100.458 29.9346 102.961 31.3979 104.631C30.0661 103.358 26.4838 101.257 25.7623 103.222C24.9702 105.38 28.6402 107.693 30.898 108.714C27.3027 107.392 24.4252 108.408 27.8059 111.011C30.3699 112.986 39.5284 114.992 42.2537 112.501C42.2537 112.501 41.5395 109.028 40.7144 108.34Z" fill="#C27150"/>
<path d="M98.6486 97.8226C97.8054 107.943 92.0643 117.942 79.2613 117.942C70.704 117.942 63.4454 111.236 63.1659 102.578C62.8001 91.2383 71.0854 77.4413 83.2848 76.9717C92.7957 76.6061 99.3803 89.0433 98.6486 97.8226Z" fill="#F4B480"/>
<path d="M88.2774 0.0635666C92.7441 0.899164 87.9599 7.71346 85.343 10.2755C87.6208 8.55748 92.7447 5.71385 94.3279 7.43934C97.2198 10.591 89.0083 14.16 86.9962 14.2467C88.9092 14.3191 93.9874 13.9906 93.4823 16.4187C92.7232 20.0699 84.6831 18.2877 81.929 17.0576L78.9004 13.1783C79.5395 9.68274 83.0445 -0.915323 88.2774 0.0635666Z" fill="#F4B480"/>
<path d="M20.5231 18.4209C17.0893 21.3968 24.6589 24.8643 28.2114 25.7549C25.3778 25.4216 19.5191 25.5535 19.0235 27.8423C18.1181 32.0226 27.0082 30.9584 28.7891 30.0174C27.1743 31.0458 22.6246 33.3253 24.2866 35.1667C26.7849 37.935 32.8261 32.3381 34.5823 29.886L35.2385 25.0086C32.9215 22.3136 24.5463 14.9341 20.5231 18.4209Z" fill="#F4B480"/>
<path d="M101.428 36.6618C106.552 55.574 92.3232 68.9685 71.8014 74.5285C51.2792 80.0887 32.2349 75.7089 27.1108 56.7963C21.9866 37.8838 34.4694 18.0452 54.9915 12.4849C75.5135 6.92487 96.3038 17.7487 101.428 36.6618Z" fill="#C27150"/>
<path d="M55.5424 47.4253C57.5703 54.9102 53.1464 62.6218 45.6616 64.6498C38.1768 66.6777 30.4654 62.2539 28.4374 54.7692C26.4096 47.2841 30.8332 39.5728 38.318 37.5448C45.8029 35.517 53.5144 39.9406 55.5424 47.4253Z" fill="#F4B480"/>
<path d="M99.0307 35.6435C101.085 43.2256 96.6034 51.038 89.0216 53.0923C81.4389 55.1467 73.6271 50.6653 71.5727 43.083C69.5185 35.5007 73.9996 27.6887 81.5821 25.6342C89.1639 23.5801 96.9762 28.0614 99.0307 35.6435Z" fill="#F4B480"/>
<path d="M52.9437 50.2272C54.3995 55.6003 51.224 61.1365 45.8508 62.5922C40.4777 64.0482 34.9416 60.8723 33.486 55.4988C32.0304 50.1264 35.2059 44.5903 40.5793 43.1346C45.9522 41.6786 51.4881 44.8547 52.9437 50.2272Z" fill="white"/>
<path d="M95.8581 38.6004C97.3137 43.9733 94.1384 49.5097 88.765 50.9655C83.3917 52.4212 77.8559 49.2452 76.4001 43.8722C74.9445 38.4994 78.1198 32.9633 83.4932 31.5075C88.8665 30.0519 94.4025 33.2278 95.8581 38.6004Z" fill="white"/>
<path d="M50.7422 50.6703C51.9228 55.0279 49.3476 59.5176 44.9901 60.6981C40.6324 61.8787 36.1429 59.3035 34.9623 54.9457C33.7816 50.5885 36.357 46.0988 40.7149 44.9184C45.0723 43.7377 49.5619 46.3131 50.7422 50.6703Z" fill="#08071F"/>
<path d="M93.8446 38.9832C95.0266 43.3455 92.4483 47.8397 88.0868 49.0212C83.7241 50.2034 79.2303 47.6254 78.0485 43.2633C76.8668 38.9015 79.4444 34.4073 83.8072 33.2253C88.1685 32.0434 92.6631 34.6216 93.8446 38.9832Z" fill="#08071F"/>
<path d="M67.1492 59.2661C66.3773 59.4491 58.6752 51.1476 58.883 47.8142C59.084 44.5377 67.9187 42.5029 69.256 45.7186C70.6921 49.1767 67.991 59.0648 67.1492 59.2661Z" fill="#FFA300"/>
<path d="M47.317 45.9118C47.594 46.9345 46.9894 47.9881 45.9672 48.2651C44.9449 48.542 43.8911 47.9375 43.6141 46.9152C43.3371 45.8925 43.9415 44.8393 44.964 44.5624C45.9862 44.2852 47.04 44.8897 47.317 45.9118Z" fill="white"/>
<path d="M91.0982 34.0509C91.3754 35.073 90.7706 36.127 89.7485 36.404C88.7263 36.6807 87.6723 36.0764 87.3953 35.0539C87.1183 34.0314 87.7229 32.978 88.7453 32.701C89.7676 32.4241 90.8214 33.0282 91.0982 34.0509Z" fill="white"/>
<path d="M34.6113 24.5024C42.0947 23.2569 56.1706 29.0239 62.0954 39.3454C61.9006 27.0804 73.7891 14.6699 79.3692 13.1957C66.8125 8.80129 57.6401 10.0212 44.8871 16.2437C41.9887 17.6581 34.6113 24.5024 34.6113 24.5024Z" fill="#F4B480"/>
<path d="M59.1593 28.9405C58.5306 28.3378 55.8289 24.3767 57.9692 24.2686C59.4176 24.1955 59.237 27.9795 59.3576 28.7667L59.1593 28.9405Z" fill="#08071F"/>
<path d="M52.891 24.3755C52.1089 23.9921 48.3315 21.0386 50.3385 20.2858C51.6961 19.776 52.6727 23.4359 53.0268 24.1498L52.891 24.3755Z" fill="#08071F"/>
<path d="M56.7328 18.9233C56.0994 18.3255 53.3687 14.3838 55.5082 14.2601C56.9557 14.1767 56.8029 17.9611 56.9295 18.7479L56.7328 18.9233Z" fill="#08071F"/>
<path d="M62.4475 21.3622C62.9296 20.6368 64.7009 16.1814 62.5892 16.5433C61.1596 16.7883 62.1619 20.4409 62.2159 21.236L62.4475 21.3622Z" fill="#08071F"/>
<path d="M37.3867 57.7012C37.6206 58.1849 37.4188 58.7661 36.9354 59.0004C36.4522 59.2342 35.8706 59.0322 35.6364 58.5488C35.4025 58.0655 35.6046 57.4839 36.088 57.2498C36.5712 57.0156 37.1526 57.218 37.3867 57.7012Z" fill="white"/>
<path d="M81.5831 45.9138C81.7235 46.4324 81.4172 46.9664 80.8988 47.1066C80.3807 47.2472 79.8463 46.9412 79.7059 46.4223C79.5656 45.9044 79.8719 45.3698 80.3903 45.2293C80.9083 45.0891 81.4426 45.3959 81.5831 45.9138Z" fill="white"/>
<path d="M62.9954 44.4971C60.7033 45.0539 58.6162 46.3404 58.5198 47.9137C58.3119 51.247 66.0137 59.5483 66.7859 59.3655C66.8423 59.352 66.907 59.2942 66.9785 59.1985L62.9954 44.4971Z" fill="#FFC200"/>
<path d="M32.9983 36.6636C32.0369 37.3535 31.0092 37.9357 30.0601 38.6418C28.9393 39.4758 27.931 40.4381 27.0552 41.5267C25.3889 43.5983 24.2657 46.0558 23.7209 48.6545C22.6495 53.7652 23.824 59.3246 26.8476 63.5768C30.1049 68.1576 35.3386 70.6764 40.9412 70.512C46.0667 70.3616 51.4503 68.664 55.0206 64.8402C61.0784 58.3528 59.8063 48.048 54.3657 41.6294C52.0894 38.9441 49.0142 36.9813 45.6348 36.0112C41.5538 34.8396 37.1798 35.26 33.1918 36.5821C32.2047 36.9093 32.6277 38.475 33.6227 38.1452C38.3848 36.5667 43.5946 36.4049 48.1457 38.7288C51.8965 40.6441 54.7823 44.0408 56.2778 47.958C57.7242 51.7462 57.8811 55.9974 56.367 59.788C54.692 63.9809 50.8742 66.7325 46.6494 67.9795C41.2751 69.5656 35.2588 69.2454 30.8262 65.5351C26.8787 62.2308 24.846 57.0361 24.9615 51.9485C25.0268 49.0694 25.8632 46.2408 27.4016 43.8063C28.2064 42.5324 29.2301 41.4159 30.3774 40.4433C31.4433 39.5398 32.6835 38.8763 33.8162 38.0636C34.6575 37.4598 33.8494 36.0528 32.9983 36.6636Z" fill="#08071F"/>
<path d="M78.5207 24.5381C78.1976 24.8719 77.8747 25.2055 77.5517 25.5394C77.1814 25.922 76.3687 26.2588 75.8842 26.6111C74.7526 27.4346 73.7311 28.3919 72.8426 29.4731C71.1538 31.5281 70.0078 33.9803 69.4393 36.5746C68.3213 41.6764 69.4609 47.2453 72.4449 51.523C75.6532 56.1219 80.8508 58.6962 86.4429 58.5892C91.5722 58.4911 96.9827 56.7959 100.584 53.0079C106.715 46.5579 105.551 36.2349 100.24 29.6949C97.9693 26.8991 94.8553 24.8367 91.4067 23.8103C87.307 22.5901 82.8946 22.9982 78.8782 24.3297C77.8911 24.6569 78.3141 26.2226 79.3091 25.8928C84.0567 24.3191 89.2448 24.169 93.7773 26.4925C97.5308 28.4169 100.413 31.8243 101.923 35.7415C103.386 39.5387 103.58 43.8053 102.116 47.6306C100.513 51.8185 96.8112 54.6513 92.6224 55.961C87.3029 57.6241 81.2328 57.4062 76.7509 53.804C72.737 50.5783 70.6134 45.4201 70.6422 40.3305C70.6596 37.2913 71.5235 34.2988 73.174 31.7449C74.0238 30.4298 75.1121 29.2852 76.3251 28.3004C76.9934 27.7577 77.7285 27.2939 78.4769 26.8711C78.9332 26.6133 79.3062 26.0571 79.6668 25.6845C80.3937 24.9333 79.2486 23.786 78.5207 24.5381Z" fill="#08071F"/>
<path d="M57.5962 47.9731C58.4278 45.8752 60.1288 44.214 62.2654 43.4784C64.4867 42.7135 66.8269 43.186 68.743 44.4792C69.6121 45.0657 70.4223 43.6608 69.5611 43.0795C67.2175 41.4978 64.3266 41.0571 61.6423 41.9815C59.0123 42.8873 57.0443 44.9909 56.0331 47.5425C55.6477 48.5152 57.2158 48.9331 57.5962 47.9731Z" fill="#08071F"/>
<path d="M16.1594 95.6395C15.8284 95.1321 16.0297 94.4152 16.6084 94.0383L48.6078 73.1801C49.1865 72.8031 49.9235 72.9085 50.2542 73.4162L72.0509 106.856C72.3819 107.363 72.1806 108.081 71.6019 108.458L39.6025 129.315C39.0241 129.692 38.2867 129.587 37.9561 129.079L16.1594 95.6395Z" fill="#797085"/>
<path d="M22.6394 96.7202C22.3084 96.2127 22.5787 95.4508 23.2427 95.0181L49.3456 78.0036C50.0095 77.571 50.8158 77.6313 51.1464 78.1387L68.0464 104.066C68.3773 104.574 68.1072 105.336 67.4433 105.769L41.3404 122.783C40.6763 123.216 39.87 123.155 39.5393 122.648L22.6394 96.7202Z" fill="#FFF2E9"/>
<path d="M68.0228 105.391C67.6649 104.842 67.8198 104.107 68.3689 103.749C68.9177 103.392 69.6528 103.546 70.0107 104.095C70.3686 104.644 70.2136 105.38 69.6646 105.737C69.1156 106.095 68.3805 105.94 68.0228 105.391Z" fill="#FAFAFF"/>
<path d="M65.4505 101.415C65.0926 100.867 65.2476 100.131 65.7966 99.7736C66.3454 99.416 67.0805 99.5708 67.4384 100.12C67.7962 100.669 67.6414 101.404 67.0922 101.762C66.5432 102.119 65.8081 101.964 65.4505 101.415Z" fill="#FAFAFF"/>
<path d="M62.8783 97.4419C62.5203 96.8929 62.6753 96.1578 63.2243 95.8001C63.7732 95.4423 64.5083 95.5971 64.866 96.1461C65.2239 96.6953 65.069 97.4302 64.5199 97.788C63.9711 98.1457 63.2362 97.9909 62.8783 97.4419Z" fill="#FAFAFF"/>
<path d="M60.3059 93.4672C59.948 92.9182 60.1032 92.1832 60.652 91.8253C61.2009 91.4678 61.936 91.6226 62.2939 92.1714C62.6518 92.7206 62.4968 93.4557 61.9478 93.8134C61.3988 94.171 60.6637 94.016 60.3059 93.4672Z" fill="#FAFAFF"/>
<path d="M57.7317 89.4918C57.3738 88.9426 57.5289 88.2077 58.078 87.8498C58.6268 87.4921 59.3619 87.647 59.7198 88.1959C60.0776 88.7451 59.9226 89.48 59.3737 89.8377C58.8246 90.1956 58.0895 90.0407 57.7317 89.4918Z" fill="#FAFAFF"/>
<path d="M55.1593 85.5171C54.8016 84.9681 54.9567 84.233 55.5056 83.8752C56.0544 83.5175 56.7895 83.6723 57.1473 84.2213C57.5052 84.7705 57.3502 85.5054 56.8012 85.8632C56.2522 86.2209 55.5172 86.0661 55.1593 85.5171Z" fill="#FAFAFF"/>
<path d="M52.5852 81.5426C52.2273 80.9935 52.3826 80.2585 52.9314 79.9006C53.4803 79.5429 54.2154 79.6977 54.5733 80.2469C54.9312 80.7959 54.7762 81.5308 54.2272 81.8885C53.6782 82.2463 52.9431 82.0915 52.5852 81.5426Z" fill="#FAFAFF"/>
<path d="M50.0129 77.5682C49.6551 77.0188 49.8102 76.2839 50.3591 75.926C50.9079 75.5683 51.643 75.7231 52.0008 76.2723C52.3587 76.8213 52.2037 77.5562 51.6547 77.9139C51.1059 78.2717 50.3708 78.117 50.0129 77.5682Z" fill="#FAFAFF"/>
<path d="M68.6464 104.985C68.4025 104.611 68.466 104.138 68.7879 103.928L71.0329 102.465C71.3547 102.255 71.8133 102.388 72.0569 102.762C72.3005 103.136 72.2373 103.609 71.9154 103.819L69.6704 105.282C69.3486 105.492 68.8901 105.359 68.6464 104.985Z" fill="#1E2222"/>
<path d="M66.0605 101.019C65.8165 100.645 65.8801 100.172 66.202 99.9622L68.447 98.4989C68.7688 98.289 69.2273 98.422 69.4711 98.7959C69.7148 99.17 69.6514 99.6432 69.3296 99.8529L67.0846 101.316C66.7627 101.526 66.3041 101.393 66.0605 101.019Z" fill="#1E2222"/>
<path d="M63.4745 97.0524C63.2307 96.6781 63.2941 96.2051 63.616 95.9953L65.861 94.532C66.1828 94.3224 66.6413 94.4551 66.8851 94.8291C67.1287 95.2032 67.0654 95.6762 66.7436 95.8861L64.4986 97.3493C64.1768 97.5592 63.7181 97.4262 63.4745 97.0524Z" fill="#1E2222"/>
<path d="M60.8905 93.0864C60.6467 92.7125 60.7101 92.2392 61.0322 92.0296L63.2772 90.5662C63.5989 90.3565 64.0575 90.4894 64.3013 90.8633C64.5449 91.2375 64.4815 91.7105 64.1598 91.9202L61.9146 93.3836C61.5928 93.5933 61.1341 93.4604 60.8905 93.0864Z" fill="#1E2222"/>
<path d="M58.3047 89.1197C58.0607 88.7455 58.1241 88.2726 58.4462 88.0628L60.6912 86.5994C61.0129 86.3897 61.4714 86.5226 61.7151 86.8964C61.9589 87.2706 61.8956 87.7436 61.5736 87.9534L59.3286 89.4166C59.0069 89.6267 58.5481 89.4938 58.3047 89.1197Z" fill="#1E2222"/>
<path d="M55.7186 85.1529C55.4748 84.7789 55.5382 84.3056 55.8601 84.096L58.1051 82.6326C58.4271 82.4229 58.8855 82.5558 59.1293 82.9296C59.3729 83.3037 59.3095 83.7767 58.9877 83.9866L56.7427 85.45C56.4208 85.6598 55.9621 85.5268 55.7186 85.1529Z" fill="#1E2222"/>
<path d="M53.1348 81.187C52.8908 80.8132 52.9542 80.3399 53.2761 80.1302L55.5211 78.6668C55.8429 78.457 56.3013 78.5901 56.5452 78.9637C56.789 79.338 56.7256 79.811 56.4037 80.0208L54.1587 81.4842C53.8368 81.6941 53.3781 81.561 53.1348 81.187Z" fill="#1E2222"/>
<path d="M50.5468 77.2202C50.303 76.8465 50.3662 76.3731 50.6883 76.1634L52.9333 74.7C53.2551 74.4902 53.7135 74.6233 53.9574 74.9969C54.2012 75.3712 54.1378 75.8442 53.8159 76.054L51.5709 77.5174C51.2488 77.7273 50.7901 77.5944 50.5468 77.2202Z" fill="#1E2222"/>
<path d="M47.0879 79.4219L46.8164 79.5989L46.8407 79.6362L47.1124 79.4592L47.0879 79.4219Z" fill="#A07569"/>
<path d="M47.1135 79.459L46.8418 79.636L64.9149 107.339L65.1864 107.162L47.1135 79.459Z" fill="#E2B59B"/>
<path d="M44.6426 81.0244L44.3711 81.2013L44.3917 81.2328L44.6632 81.0559L44.6426 81.0244Z" fill="#A07569"/>
<path d="M44.6621 81.0557L44.3906 81.2326L62.4486 108.949L62.7204 108.772L44.6621 81.0557Z" fill="#E2B59B"/>
<path d="M42.1955 82.627L41.9238 82.8038L41.9408 82.83L42.2124 82.6532L42.1955 82.627Z" fill="#A07569"/>
<path d="M42.2129 82.6533L41.9414 82.8301L59.9846 110.56L60.2566 110.383L42.2129 82.6533Z" fill="#E2B59B"/>
<path d="M39.7503 84.2295L39.4785 84.4061L39.492 84.4269L39.7636 84.2499L39.7503 84.2295Z" fill="#A07569"/>
<path d="M39.7619 84.251L39.4902 84.428L57.5189 112.171L57.7909 111.995L39.7619 84.251Z" fill="#E2B59B"/>
<path d="M37.3031 85.833L37.0312 86.0097L37.0411 86.0247L37.3126 85.8479L37.3031 85.833Z" fill="#A07569"/>
<path d="M37.3125 85.8477L37.041 86.0245L55.0546 113.782L55.3267 113.605L37.3125 85.8477Z" fill="#E2B59B"/>
<path d="M34.8543 87.4355L34.582 87.6119L34.5885 87.6218L34.8603 87.4448L34.8543 87.4355Z" fill="#A07569"/>
<path d="M34.8617 87.4443L34.5898 87.6213L52.5888 115.392L52.8608 115.216L34.8617 87.4443Z" fill="#E2B59B"/>
<path d="M32.4089 89.0381L32.1367 89.2142L32.1396 89.2185L32.411 89.0416L32.4089 89.0381Z" fill="#A07569"/>
<path d="M32.41 89.042L32.1387 89.2188L50.1227 117.003L50.3947 116.827L32.41 89.042Z" fill="#E2B59B"/>
<path d="M29.9618 90.6416L29.6895 90.8178L47.6581 118.614L47.9306 118.438L29.9618 90.6416Z" fill="#E2B59B"/>
<path d="M27.5147 92.2451L27.2422 92.4207L45.1924 120.225L45.4649 120.05L27.5147 92.2451Z" fill="#E2B59B"/>
<path d="M25.0694 93.8467L24.7969 94.0224L42.7286 121.835L43.0011 121.659L25.0694 93.8467Z" fill="#E2B59B"/>
<path d="M25.2993 105.541C28.0403 107.535 29.7194 103.142 30.2691 100.789C29.9972 103.728 29.6766 110.583 32.9047 112.083C35.3647 113.225 36.6086 110.658 36.8407 108.161C37.5878 109.971 39.0011 115.406 41.5184 116.016C45.2328 116.915 43.8581 112.257 43.2261 110.257C40.5006 101.63 38.562 81.7547 45.972 73.8816C45.972 73.8816 45.0458 70.1766 40.4144 70.6397C35.1601 71.1652 27.91 77.5866 24.205 83.6072C20.5214 89.5931 17.9095 104.246 26.6448 94.6128C25.3129 96.5301 22.6017 103.579 25.2993 105.541Z" fill="#884744"/>
<ellipse cx="75" cy="136.5" rx="75" ry="3.5" fill="url(#paint0_radial_445_2)"/>
<defs>
<radialGradient id="paint0_radial_445_2" cx="0" cy="0" r="1" gradientTransform="matrix(50.3731 0.5 -0.0292381 2.35075 75 136.5)" gradientUnits="userSpaceOnUse">
<stop/>
<stop offset="1" stop-color="#666666" stop-opacity="0"/>
</radialGradient>
</defs>
</svg>
